<svg xmlns="http://www.w3.org/2000/svg" viewBox="176 76 48 48"><linearGradient id="a" gradientUnits="userSpaceOnUse" x1="71.366" y1="132.875" x2="71.366" y2="121.375" gradientTransform="matrix(4.1667 0 0 -4.1667 -97.318 629.646)"><stop offset="0" stop-color="#f5f5f5"/><stop offset=".276" stop-color="#eee"/><stop offset=".668" stop-color="#dcdcdc"/><stop offset=".829" stop-color="#d2d2d2"/></linearGradient><path fill="url(#a)" d="M224 117.928a5.99 5.99 0 0 1-5.989 5.989h-35.938a5.99 5.99 0 0 1-5.99-5.989V81.99a5.99 5.99 0 0 1 5.99-5.99h35.938A5.99 5.99 0 0 1 224 81.99v35.938z"/><path opacity=".05" d="M220.654 121.186a6.109 6.109 0 0 1-.305-.412c-.99-1.499-1.969-3.048-2.954-4.606-1.339-1.896-2.66-3.772-4.264-5.465-.733-.773-1.146-1.613-1.314-2.454-1.72-2.369-3.482-4.706-5.353-6.963a5.856 5.856 0 0 1-.4-.551c-.394-.401-.774-.816-1.183-1.199-.098-.091-.181-.186-.269-.28a27.052 27.052 0 0 0-1.911 1.779c-2.291 2.361-5.245 1.679-7-.167-.087.001-.174-.008-.262-.009a199.545 199.545 0 0 0-2.717 3.095c-1.676 1.96-3.278 3.979-4.892 5.987-.956 1.659-2.282 3.056-3.609 4.44-.124.376-.264.751-.49 1.056a34.22 34.22 0 0 1-.856 1.113c-.19.149-.383.295-.574.442-1.148 2.009-2.527 3.826-4.053 5.543a5.97 5.97 0 0 0 3.824 1.381h35.938c1.358 0 2.593-.475 3.597-1.237a4.789 4.789 0 0 1-.953-1.493z"/><path opacity=".4" fill="#FFF" d="M179.808 84.909c1.984 1.965 4 3.664 5.802 5.738l.176.151-.025.019c.234.274.462.557.688.846 3.334 3.101 7.497 5.558 10.63 8.936.82.884 1.918 2.05 2.867 3.349.228-.747.688-1.481 1.436-2.148 4.773-4.259 9.473-8.611 14.184-12.937 2.618-2.405 5.312-5.342 8.413-7.288a5.987 5.987 0 0 0-5.968-5.574h-35.938a5.989 5.989 0 0 0-5.949 5.312c1.291 1.04 2.355 2.279 3.684 3.596z"/><path fill="#BCBCBC" d="M176.115 81.374L200 101.959l23.969-20.585L200 105.25z"/><path fill="#BCBCBC" d="M221.672 122.718l-17.484-21.968 1.781-1.656zm-43.326 0l17.685-21.906-1.656-1.718z"/></svg>